<svg xmlns="http://www.w3.org/2000/svg" width="32" height="32.012" viewBox="0 0 32 32.012">
  <g id="Group_15762" data-name="Group 15762" transform="translate(0 -14.459)">
    <path id="Path_16064" data-name="Path 16064" d="M16.7,2.883c4.278,0,4.784.019,6.466.094a8.772,8.772,0,0,1,2.97.55,4.951,4.951,0,0,1,1.839,1.194A4.924,4.924,0,0,1,29.171,6.56a8.808,8.808,0,0,1,.55,2.97c.075,1.688.094,2.195.094,6.466s-.019,4.784-.094,6.466a8.772,8.772,0,0,1-.55,2.97,5.278,5.278,0,0,1-3.033,3.033,8.808,8.808,0,0,1-2.97.55c-1.688.075-2.2.094-6.466.094s-4.784-.019-6.466-.094a8.772,8.772,0,0,1-2.971-.55,4.951,4.951,0,0,1-1.839-1.194,4.924,4.924,0,0,1-1.194-1.838,8.809,8.809,0,0,1-.55-2.97c-.075-1.688-.094-2.2-.094-6.466s.019-4.784.094-6.466a8.772,8.772,0,0,1,.55-2.97A4.951,4.951,0,0,1,5.426,4.721,4.924,4.924,0,0,1,7.264,3.527a8.809,8.809,0,0,1,2.971-.55C11.917,2.9,12.424,2.883,16.7,2.883ZM16.7,0c-4.346,0-4.89.019-6.6.094A11.7,11.7,0,0,0,6.22.838,7.814,7.814,0,0,0,3.381,2.689,7.844,7.844,0,0,0,1.53,5.522,11.731,11.731,0,0,0,.785,9.405c-.075,1.713-.094,2.258-.094,6.6s.019,4.89.094,6.6A11.7,11.7,0,0,0,1.53,26.49a7.813,7.813,0,0,0,1.851,2.839,7.826,7.826,0,0,0,2.833,1.845,11.73,11.73,0,0,0,3.884.744c1.707.075,2.251.094,6.6.094s4.89-.019,6.6-.094a11.7,11.7,0,0,0,3.884-.744A8.178,8.178,0,0,0,31.854,26.5a11.732,11.732,0,0,0,.744-3.883c.075-1.707.094-2.251.094-6.6s-.019-4.89-.094-6.6a11.7,11.7,0,0,0-.744-3.883,7.5,7.5,0,0,0-1.832-2.845A7.826,7.826,0,0,0,27.188.844,11.733,11.733,0,0,0,23.3.1C21.591.019,21.047,0,16.7,0Z" transform="translate(-0.692 14.459)" fill="#123347"/>
    <path id="Path_16065" data-name="Path 16065" d="M16.7,7.786a8.224,8.224,0,1,0,8.224,8.224A8.226,8.226,0,0,0,16.7,7.786Zm0,13.558a5.334,5.334,0,1,1,5.334-5.334A5.335,5.335,0,0,1,16.7,21.344Z" transform="translate(-0.692 14.458)" fill="#123347"/>
  </g>
</svg>
