<svg xmlns="http://www.w3.org/2000/svg" width="32" height="32" viewBox="0 0 32 32">
  <path id="Path_16067" data-name="Path 16067" d="M29.631.006H2.362A2.333,2.333,0,0,0,0,2.313V29.694a2.338,2.338,0,0,0,2.362,2.313H29.631A2.343,2.343,0,0,0,32,29.7V2.313A2.339,2.339,0,0,0,29.631.006ZM9.494,27.275H4.744V12h4.75ZM7.119,9.919a2.75,2.75,0,1,1,2.75-2.75A2.751,2.751,0,0,1,7.119,9.919Zm20.15,17.356H22.525V19.85c0-1.769-.031-4.05-2.469-4.05-2.469,0-2.844,1.931-2.844,3.925v7.55H12.475V12h4.55v2.087h.063a4.984,4.984,0,0,1,4.488-2.469c4.806,0,5.694,3.162,5.694,7.275v8.381Z" transform="translate(0 -0.006)" fill="#123347"/>
</svg>
